<?xml version="1.0" encoding="utf-8"?>
<!-- Created with: Axialis IconVectors - www.axialis.com -->
<svg xmlns="http://www.w3.org/2000/svg" version="1.1" xmlns:xlink="http://www.w3.org/1999/xlink" viewBox="0 0 512 512">
  <rect fill="#1f2937" x="-1.5" y="0" width="512" height="512" rx="120"/>
  <rect fill="#f8fafc" x="156.5" y="129.7" width="200" height="170" rx="36"/>
  <g>
    <rect fill="#1f2937" x="170" y="145" width="18" height="18" rx="4"/>
    <rect fill="#1f2937" x="170" y="267" width="18" height="18" rx="4"/>
    <rect fill="#1f2937" x="324" y="145" width="18" height="18" rx="4"/>
    <rect fill="#1f2937" x="324" y="267" width="18" height="18" rx="4"/>
  </g>
  <ellipse fill="#111827" cx="225" cy="210" rx="10" ry="10"/>
  <ellipse fill="#111827" cx="287" cy="210" rx="10" ry="10"/>
  <path fill="none" stroke="#111827" stroke-width="8" stroke-linecap="round" d="M225,245L287,245"/>
  <ellipse fill="#fda4af" cx="205" cy="232" rx="8" ry="8"/>
  <path fill="#fda4af" d="M301.36,233.81C300.81,229.42,303.91,225.42,308.29,224.86C312.68,224.31,316.68,227.41,317.24,231.79C317.79,236.18,314.69,240.18,310.31,240.74C305.92,241.29,301.92,238.19,301.36,233.81z"/>
  <ellipse fill="#fb7185" cx="256" cy="287.5" rx="55" ry="55"/>
  <polygon fill="white" points="239,263.8 239,313.8 284,288.8"/>
  <path fill="none" stroke="#000000" stroke-width="5.5" d="M152.2,210.8L224.2,280.6"/>
  <path fill="none" stroke="#000000" stroke-width="5.5" d="M359.7,213L287.7,282.8"/>
  <ellipse fill="#fde68a" cx="115" cy="120" rx="8" ry="8"/>
  <ellipse fill="#fde68a" cx="395" cy="150" rx="8" ry="8"/>
  <ellipse fill="#93c5fd" cx="380" cy="95" rx="5" ry="5"/>
  <g>
    <path fill="#93C5FD" d="M58.74,415.01L50.41,367.64L42.84,415.01L37.22,415.01L47.51,350.51C43.59,351.37,40.56,353.22,38.44,356.08C36.32,358.93,35.26,362.95,35.26,368.11C35.26,370.19,35.41,371.9,35.68,373.22C35.96,374.54,36.29,375.6,36.67,376.4C37.04,377.2,37.43,377.77,37.83,378.1C38.24,378.44,38.54,378.67,38.72,378.79C35.35,378.79,32.64,377.95,30.59,376.26C28.53,374.57,27.5,371.91,27.5,368.29C27.5,365.28,28.25,362.41,29.74,359.67C31.24,356.94,33.14,354.56,35.45,352.53C37.75,350.51,40.29,348.89,43.07,347.69C45.84,346.5,48.54,345.9,51.16,345.9C52.15,345.9,53.14,345.99,54.1,346.18C55.07,346.36,55.99,346.7,56.86,347.19L66.22,400.73L77.16,347.19L87.82,347.19L93.05,415.01L82.39,415.01L78.65,366.72L68.74,415.01z"/>
    <path fill="#93C5FD" d="M119.37,368.47 C121.81,368.47 123.89,368.84 125.64,369.58 C127.38,370.31 128.81,371.35 129.94,372.67 C131.06,373.99 131.94,375.54 132.61,377.32 C133.26,379.1 133.74,381.01 134.05,383.03 L134.62,383.03 C137.23,383.03 139.63,382.51 141.82,381.47 C144,380.43 145.87,379.1 147.43,377.5 L148.83,379.99 C147.58,381.96 145.6,383.59 142.89,384.88 C140.18,386.16 137.39,387.06 134.52,387.55 C134.52,388.16 134.54,388.78 134.56,389.39 C134.6,390.01 134.62,390.65 134.62,391.33 C134.62,398.88 133.21,404.81 130.41,409.11 C127.6,413.41 123.68,415.56 118.62,415.56 C116.56,415.56 114.49,415.19 112.4,414.46 C110.32,413.72 108.43,412.49 106.74,410.77 C105.06,409.05 103.71,406.84 102.68,404.14 C101.65,401.43 101.13,398.08 101.13,394.09 C101.13,391.39 101.43,388.53 102.02,385.52 C102.61,382.51 103.61,379.75 105.01,377.23 C106.42,374.71 108.29,372.62 110.63,370.97 C112.96,369.31 115.88,368.47 119.37,368.47 Z M120.35,408.56 C123.64,408.56 126.06,406.94 127.61,403.72 C129.16,400.49 129.94,395.94 129.94,390.03 C129.94,389.67 129.94,389.3 129.94,388.93 C129.94,388.56 129.91,388.19 129.84,387.82 C128.04,387.7 126.75,387.3 125.96,386.62 C125.19,385.96 124.8,384.82 124.8,383.22 C124.8,381.81 125.11,380.81 125.73,380.23 C126.35,379.64 127.29,379.31 128.54,379.25 C127.79,377.07 126.84,375.56 125.7,374.71 C124.55,373.87 123.26,373.45 121.84,373.45 C119.92,373.45 118.29,374.08 116.95,375.35 C115.62,376.61 114.54,378.23 113.7,380.19 C112.87,382.16 112.26,384.34 111.89,386.71 C111.52,389.08 111.33,391.41 111.33,393.68 C111.33,396.7 111.61,399.16 112.16,401.08 C112.73,402.99 113.44,404.49 114.31,405.6 C115.17,406.71 116.13,407.48 117.19,407.91 C118.24,408.34 119.3,408.56 120.35,408.56 Z"/>
    <path fill="#93C5FD" d="M172.74,383.96C172.74,387.46,172.44,391.07,171.84,394.78C171.25,398.5,170.27,401.89,168.9,404.96C167.53,408.04,165.76,410.57,163.57,412.57C161.39,414.56,158.68,415.56,155.43,415.56C153.81,415.56,152.24,415.28,150.71,414.73C149.19,414.18,147.81,413.38,146.6,412.33C145.38,411.29,144.41,409.97,143.7,408.38C142.98,406.78,142.62,404.96,142.62,402.94L142.62,368.93L151.97,368.93L151.97,400.27C151.97,401.31,152.04,402.33,152.16,403.31C152.28,404.29,152.55,405.16,152.95,405.94C153.36,406.7,153.92,407.33,154.64,407.82C155.35,408.31,156.28,408.56,157.4,408.56C159.33,408.56,160.95,407.87,162.26,406.48C163.57,405.1,164.64,403.31,165.49,401.09C166.33,398.88,166.94,396.41,167.31,393.68C167.69,390.95,167.87,388.22,167.87,385.52C167.87,383.8,167.81,382.1,167.69,380.41C167.56,378.72,167.34,377.2,167.03,375.84C166.72,376.16,166.31,376.36,165.82,376.44C165.31,376.54,164.91,376.58,164.6,376.58C163.1,376.58,161.98,376.06,161.23,375.02C160.48,373.97,160.11,372.87,160.11,371.7C160.11,370.47,160.51,369.38,161.33,368.43C162.14,367.48,163.32,367,164.88,367C165.94,367,166.96,367.31,167.92,367.92C168.89,368.53,169.73,369.51,170.44,370.83C171.16,372.15,171.72,373.88,172.13,376.03C172.53,378.18,172.74,380.83,172.74,383.96z"/>
    <path fill="#93C5FD" d="M190.51,368.93 L190.51,400.27 C190.51,400.88 190.55,401.65 190.61,402.57 C190.67,403.49 190.84,404.4 191.12,405.28 C191.41,406.18 191.82,406.94 192.39,407.59 C192.95,408.24 193.73,408.56 194.72,408.56 C197.78,408.56 200.02,405.21 201.46,398.51 L204.91,398.51 C204.23,402.39 203.35,405.44 202.29,407.68 C201.24,409.93 200.11,411.63 198.93,412.8 C197.75,413.96 196.53,414.72 195.29,415.06 C194.04,415.39 192.91,415.56 191.92,415.56 C189.74,415.56 187.96,415.14 186.59,414.32 C185.21,413.49 184.13,412.43 183.31,411.13 C182.5,409.85 181.94,408.4 181.63,406.8 C181.32,405.21 181.16,403.67 181.16,402.2 L181.16,368.93 Z M179.48,355.66 C179.48,354 180.07,352.56 181.26,351.33 C182.44,350.11 183.91,349.49 185.65,349.49 C187.34,349.49 188.8,350.11 190.05,351.33 C191.29,352.56 191.92,354 191.92,355.66 C191.92,357.39 191.29,358.83 190.05,359.99 C188.8,361.17 187.34,361.75 185.65,361.75 C183.91,361.75 182.44,361.17 181.26,359.99 C180.07,358.83 179.48,357.39 179.48,355.66 Z"/>
    <path fill="#93C5FD" d="M231.25,380.45 C231.25,384.76 229.46,388.35 225.88,391.23 C222.29,394.12 217.32,395.9 210.96,396.58 C211.21,399.04 211.66,401.03 212.32,402.57 C212.97,404.1 213.76,405.32 214.7,406.2 C215.64,407.1 216.71,407.72 217.93,408.05 C219.15,408.39 220.41,408.56 221.71,408.56 C223.71,408.56 225.6,408.22 227.37,407.54 C229.15,406.87 230.63,405.7 231.82,404.04 C231.88,404.47 231.92,404.89 231.95,405.28 C231.99,405.68 232,406.04 232,406.34 C232,407.76 231.64,409.02 230.93,410.13 C230.21,411.23 229.24,412.2 228.02,413.03 C226.81,413.86 225.41,414.49 223.81,414.92 C222.23,415.34 220.56,415.56 218.81,415.56 C216.69,415.56 214.58,415.18 212.46,414.41 C210.33,413.64 208.42,412.41 206.71,410.73 C204.99,409.03 203.6,406.84 202.54,404.14 C201.48,401.43 200.95,398.14 200.95,394.28 C200.95,391.69 201.25,388.9 201.84,385.89 C202.44,382.88 203.43,380.09 204.84,377.5 C206.24,374.92 208.07,372.77 210.35,371.05 C212.63,369.33 215.45,368.47 218.81,368.47 C220.37,368.47 221.88,368.64 223.35,368.98 C224.81,369.32 226.14,369.93 227.33,370.83 C228.51,371.71 229.46,372.93 230.18,374.46 C230.89,376 231.25,378 231.25,380.45 Z M210.87,392.99 C215.29,392.31 218.8,390.77 221.39,388.38 C223.97,385.98 225.27,383.03 225.27,379.53 C225.27,377.2 224.86,375.52 224.05,374.51 C223.24,373.5 222.09,372.99 220.59,372.99 C218.97,372.99 217.55,373.6 216.34,374.84 C215.12,376.06 214.11,377.64 213.3,379.58 C212.49,381.51 211.88,383.66 211.47,386.02 C211.07,388.39 210.87,390.71 210.87,392.99 Z"/>
    <path fill="#93C5FD" d="M278.47,407.64L290.53,346.36L297.45,346.36L310.82,407.64L322.89,346.36L328.21,346.36L313.44,415.01L303.06,415.01L291.84,365.06L281.08,415.01L270.7,415.01L255.84,351.15C253.46,351.15,251.47,351.57,249.85,352.39C248.23,353.22,246.91,354.33,245.92,355.72C244.92,357.1,244.19,358.66,243.72,360.41C243.25,362.16,243.02,363.96,243.02,365.8C243.02,368.44,243.39,370.81,244.14,372.9C244.89,374.98,245.98,376.92,247.42,378.7C246.17,378.7,244.93,378.52,243.69,378.15C242.45,377.78,241.34,377.14,240.35,376.22C239.37,375.3,238.57,374.05,237.96,372.48C237.34,370.91,237.04,368.93,237.04,366.54C237.04,363.78,237.56,361.13,238.6,358.61C239.64,356.1,241.19,353.9,243.24,352.03C245.27,350.15,247.79,348.66,250.79,347.56C253.78,346.45,257.2,345.9,261.07,345.9C261.76,345.9,262.43,345.93,263.08,345.99C263.73,346.05,264.4,346.14,265.09,346.27z"/>
    <path fill="#93C5FD" d="M366.81,368.93 L366.81,400.27 C366.81,400.88 366.84,401.65 366.91,402.57 C366.97,403.49 367.14,404.4 367.42,405.28 C367.7,406.18 368.11,406.94 368.68,407.59 C369.24,408.24 370.02,408.56 371.02,408.56 C374.07,408.56 376.31,405.21 377.75,398.51 L381.21,398.51 C380.52,402.39 379.65,405.44 378.59,407.68 C377.53,409.93 376.41,411.63 375.23,412.8 C374.04,413.96 372.83,414.72 371.57,415.06 C370.33,415.39 369.21,415.56 368.21,415.56 C366.77,415.56 365.55,415.32 364.51,414.82 C363.49,414.33 362.62,413.69 361.9,412.89 C361.18,412.09 360.61,411.17 360.16,410.13 C359.73,409.08 359.39,407.98 359.14,406.8 C358.21,409.2 356.7,411.26 354.61,412.98 C352.51,414.7 349.97,415.56 346.98,415.56 C345.11,415.56 343.22,415.19 341.33,414.46 C339.42,413.72 337.71,412.51 336.18,410.81 C334.66,409.13 333.41,406.94 332.44,404.27 C331.48,401.61 330.99,398.33 330.99,394.46 C330.99,391.63 331.32,388.69 331.97,385.62 C332.63,382.54 333.68,379.75 335.11,377.23 C336.54,374.71 338.38,372.62 340.62,370.97 C342.87,369.31 345.58,368.47 348.76,368.47 C349.51,368.47 350.3,368.55 351.15,368.7 C351.99,368.85 352.8,369.11 353.57,369.47 C354.36,369.83 355.09,370.33 355.77,370.97 C356.46,371.59 357.02,372.37 357.46,373.27 L357.46,368.93 Z M349.32,408.56 C350.26,408.56 351.21,408.3 352.17,407.77 C353.14,407.25 354.01,406.54 354.79,405.65 C355.57,404.75 356.21,403.69 356.71,402.46 C357.21,401.23 357.46,399.9 357.46,398.49 L357.46,377.43 C357.02,376.43 356.35,375.53 355.44,374.7 C354.54,373.87 353.37,373.45 351.94,373.45 C349.95,373.45 348.23,374.11 346.8,375.44 C345.36,376.76 344.21,378.43 343.34,380.43 C342.46,382.43 341.82,384.62 341.41,386.98 C341.02,389.35 340.81,391.62 340.81,393.78 C340.81,399.08 341.55,402.86 343.01,405.14 C344.48,407.42 346.58,408.56 349.32,408.56 Z"/>
    <path fill="#93C5FD" d="M388.46,354.92L388.46,368.93L395.66,368.93L395.66,372.25L388.46,372.25L388.46,400.28C388.46,401.02,388.49,401.87,388.55,402.81C388.61,403.76,388.79,404.67,389.06,405.53C389.34,406.39,389.79,407.1,390.38,407.68C390.97,408.27,391.8,408.56,392.86,408.56C394.53,408.56,396.14,407.73,397.67,406.07C399.2,404.41,400.4,401.89,401.27,398.51L404.73,398.51C403.67,402.39,402.54,405.44,401.32,407.68C400.1,409.93,398.84,411.63,397.53,412.8C396.22,413.96,394.93,414.72,393.65,415.06C392.37,415.39,391.2,415.56,390.14,415.56C387.9,415.56,386.06,415.15,384.62,414.32C383.19,413.49,382.06,412.44,381.26,411.15C380.45,409.86,379.89,408.43,379.58,406.87C379.26,405.31,379.11,403.76,379.11,402.23L379.11,372.25L375.92,372.25L375.92,368.93L379.11,368.93L379.11,356.22z"/>
    <path fill="#93C5FD" d="M422.98,383.05C423.48,382.63,423.87,381.94,424.15,380.99C424.43,380.05,424.57,379.15,424.57,378.3C424.57,376.9,424.12,375.74,423.22,374.82C422.31,373.9,421.05,373.45,419.42,373.45C417.75,373.45,416.34,374.06,415.21,375.29C414.09,376.51,413.19,378.06,412.51,379.93C411.82,381.8,411.34,383.88,411.06,386.18C410.78,388.48,410.64,390.73,410.64,392.94C410.64,396.18,410.94,398.81,411.53,400.84C412.12,402.86,412.91,404.44,413.91,405.57C414.91,406.71,416.08,407.48,417.42,407.92C418.75,408.34,420.17,408.56,421.67,408.56C424.97,408.56,427.76,407.74,430.04,406.12C432.31,404.49,434.26,401.95,435.89,398.51L439.06,398.51C438.31,400.79,437.26,402.95,435.89,405.01C434.51,407.07,432.92,408.88,431.11,410.45C429.31,412.01,427.35,413.26,425.23,414.18C423.1,415.1,420.89,415.56,418.59,415.56C416.41,415.56,414.25,415.19,412.14,414.46C410.01,413.72,408.11,412.51,406.43,410.81C404.74,409.13,403.37,406.92,402.31,404.18C401.26,401.45,400.73,398.08,400.73,394.09C400.73,391.51,400.96,388.73,401.42,385.76C401.89,382.77,402.76,380.01,404.04,377.46C405.32,374.91,407.08,372.77,409.33,371.05C411.57,369.33,414.47,368.47,418.02,368.47C421.96,368.47,424.95,369.41,427,371.29C429.06,373.16,430.09,375.9,430.09,379.53C430.09,381.07,429.79,382.36,429.2,383.4C428.61,384.44,427.69,384.97,426.44,384.97C425.07,384.97,423.91,384.33,422.98,383.05z"/>
    <path fill="#93C5FD" d="M446.18,350.51L446.18,375.94C447.11,374.28,448.06,372.94,449.03,371.93C449.99,370.91,450.98,370.17,451.97,369.67C452.97,369.18,453.91,368.86,454.82,368.71C455.72,368.55,456.58,368.47,457.39,368.47C460.2,368.47,462.46,368.99,464.18,370.04C465.89,371.09,467.19,372.42,468.06,374.05C468.92,375.68,469.51,377.48,469.79,379.44C470.06,381.41,470.2,383.31,470.2,385.16C470.2,387.18,470.13,389.64,469.97,392.53C469.81,395.41,469.74,398.21,469.74,400.91C469.74,401.53,469.77,402.26,469.83,403.12C469.89,403.98,470.08,404.81,470.4,405.61C470.71,406.4,471.17,407.1,471.8,407.68C472.42,408.27,473.33,408.56,474.51,408.56C474.94,408.56,475.47,408.51,476.1,408.42C476.72,408.33,477.19,408.13,477.5,407.82L477.5,408.47C477.5,410.13,477.28,411.41,476.85,412.33C476.41,413.26,475.88,413.96,475.26,414.46C474.63,414.95,473.94,415.26,473.19,415.38C472.45,415.5,471.8,415.56,471.24,415.56C469.3,415.56,467.65,415.18,466.28,414.41C464.91,413.64,463.77,412.61,462.86,411.33C461.96,410.03,461.31,408.54,460.9,406.86C460.5,405.16,460.29,403.37,460.29,401.47C460.29,400.91,460.31,399.88,460.34,398.38C460.37,396.87,460.4,395.26,460.44,393.54C460.46,391.82,460.5,390.19,460.52,388.65C460.56,387.12,460.58,386.04,460.58,385.43C460.58,383.46,460.42,381.83,460.11,380.55C459.79,379.25,459.36,378.24,458.79,377.5C458.24,376.77,457.59,376.24,456.88,375.94C456.16,375.64,455.4,375.48,454.59,375.48C452.65,375.48,450.99,376.24,449.58,377.78C448.18,379.31,447.04,381.9,446.18,385.52L446.18,415.01L436.82,415.01L436.82,351.79z"/>
  </g>
  <g>
    <path opacity="0.6" fill="#FF0095" d="M208.73,484.74C208.05,484.74,207.35,484.68,206.65,484.56C205.92,484.45,205.2,484.32,204.47,484.16L204.47,491.52L209.23,491.52L209.23,493.42L204.47,493.42L204.47,505.52L200.97,505.52L200.97,483.59C200.87,483.55,200.77,483.55,200.67,483.55C200.56,483.55,200.47,483.55,200.36,483.55C199.8,483.55,199.29,483.63,198.79,483.78C198.3,483.94,197.87,484.18,197.52,484.55C197.16,484.91,196.88,485.41,196.68,486.01C196.48,486.63,196.38,487.38,196.38,488.31C196.38,489.48,196.52,490.43,196.82,491.22C197.11,492,197.45,492.55,197.83,492.88C195.28,492.88,194,491.48,194,488.67C194,487.64,194.17,486.67,194.52,485.8C194.85,484.92,195.39,484.16,196.13,483.51C196.85,482.86,197.79,482.34,198.92,481.96C200.04,481.59,201.4,481.4,202.95,481.4C203.49,481.4,204,481.42,204.48,481.46C204.96,481.51,205.43,481.55,205.88,481.59C206.33,481.64,206.79,481.67,207.26,481.73C207.74,481.76,208.24,481.78,208.78,481.78C209.32,481.78,209.82,481.75,210.28,481.7C210.75,481.65,211.21,481.55,211.63,481.4C211.6,482.15,211.49,482.75,211.33,483.18C211.17,483.62,210.96,483.96,210.71,484.18C210.44,484.41,210.15,484.56,209.82,484.63C209.49,484.7,209.13,484.74,208.73,484.74z"/>
    <path opacity="0.6" fill="#FF0095" d="M217.45,489.28 C218.28,489.28 219,489.4 219.6,489.67 C220.2,489.92 220.69,490.29 221.08,490.74 C221.46,491.2 221.76,491.74 221.99,492.36 C222.22,492.99 222.38,493.64 222.49,494.36 L222.68,494.36 C223.58,494.36 224.4,494.18 225.15,493.81 C225.9,493.44 226.54,492.99 227.08,492.42 L227.56,493.31 C227.14,493.98 226.45,494.55 225.52,495 C224.59,495.45 223.63,495.76 222.65,495.93 C222.65,496.15 222.65,496.36 222.66,496.57 C222.67,496.8 222.68,497.02 222.68,497.24 C222.68,499.88 222.2,501.95 221.24,503.45 C220.27,504.95 218.92,505.71 217.18,505.71 C216.48,505.71 215.77,505.57 215.05,505.32 C214.33,505.06 213.69,504.64 213.11,504.03 C212.53,503.44 212.07,502.65 211.71,501.72 C211.36,500.77 211.18,499.61 211.18,498.22 C211.18,497.27 211.29,496.28 211.49,495.21 C211.7,494.18 212.03,493.21 212.52,492.33 C213,491.45 213.64,490.73 214.45,490.14 C215.24,489.57 216.25,489.28 217.45,489.28 Z M217.78,503.26 C218.91,503.26 219.74,502.7 220.27,501.58 C220.81,500.44 221.08,498.85 221.08,496.81 C221.08,496.67 221.08,496.54 221.08,496.41 C221.08,496.29 221.07,496.16 221.04,496.02 C220.43,495.99 219.98,495.84 219.71,495.62 C219.44,495.37 219.3,494.98 219.3,494.42 C219.3,493.92 219.42,493.58 219.63,493.37 C219.84,493.17 220.17,493.06 220.6,493.04 C220.34,492.29 220.01,491.75 219.62,491.45 C219.23,491.16 218.78,491.01 218.3,491.01 C217.63,491.01 217.07,491.23 216.61,491.68 C216.16,492.11 215.78,492.68 215.49,493.37 C215.21,494.06 215,494.81 214.88,495.63 C214.75,496.46 214.68,497.28 214.68,498.08 C214.68,499.13 214.78,499.98 214.97,500.65 C215.16,501.32 215.41,501.85 215.7,502.24 C216.01,502.62 216.33,502.88 216.69,503.04 C217.06,503.18 217.42,503.26 217.78,503.26 Z"/>
    <path opacity="0.6" fill="#FF0095" d="M228.65,489.43L228.65,492.14C228.9,491.76,229.16,491.39,229.39,491.05C229.65,490.7,229.92,490.4,230.22,490.14C230.52,489.89,230.85,489.68,231.21,489.51C231.57,489.36,231.99,489.28,232.45,489.28C233.16,489.28,233.7,489.47,234.04,489.84C234.39,490.21,234.56,490.67,234.56,491.2C234.56,491.52,234.5,491.8,234.4,492C234.29,492.22,234.15,492.4,234.02,492.52C233.86,492.66,233.7,492.75,233.53,492.8C233.35,492.85,233.21,492.88,233.07,492.88C232.88,492.88,232.74,492.83,232.61,492.75C232.49,492.67,232.37,492.58,232.25,492.48C232.14,492.39,232.01,492.3,231.85,492.2C231.7,492.12,231.51,492.07,231.28,492.07C230.78,492.07,230.31,492.24,229.86,492.59C229.42,492.92,229,493.31,228.65,493.69L228.65,505.52L225.43,505.52L225.43,489.43z"/>
    <path opacity="0.6" fill="#FF0095" d="M246.89,488.25 L246.92,490.73 C247.33,490.29 247.81,489.95 248.35,489.68 C248.9,489.4 249.53,489.28 250.25,489.28 C251.01,489.28 251.7,489.43 252.34,489.76 C252.98,490.09 253.55,490.57 254.04,491.22 C254.51,491.88 254.89,492.7 255.17,493.7 C255.45,494.7 255.58,495.88 255.58,497.24 C255.58,499.94 255.08,502.01 254.07,503.48 C253.07,504.97 251.71,505.71 250.04,505.71 C249.33,505.71 248.72,505.57 248.21,505.3 C247.72,505.04 247.27,504.66 246.89,504.16 L246.89,512.74 L243.67,513.55 L243.67,488.25 Z M249.11,491.36 C248.64,491.36 248.21,491.5 247.83,491.77 C247.46,492.04 247.13,492.41 246.89,492.9 L246.89,502.55 C247.18,502.95 247.52,503.23 247.91,503.39 C248.28,503.56 248.65,503.65 249.01,503.65 C249.56,503.65 250.03,503.47 250.43,503.14 C250.85,502.79 251.19,502.33 251.49,501.73 C251.78,501.14 251.99,500.45 252.15,499.66 C252.3,498.86 252.38,498.03 252.38,497.12 C252.38,496.01 252.27,495.08 252.07,494.34 C251.87,493.61 251.59,493 251.29,492.58 C250.96,492.13 250.59,491.81 250.21,491.63 C249.82,491.45 249.46,491.36 249.11,491.36 Z"/>
    <path opacity="0.6" fill="#FF0095" d="M263.54,489.28 C264.38,489.28 265.09,489.4 265.68,489.67 C266.29,489.92 266.78,490.29 267.17,490.74 C267.56,491.2 267.85,491.74 268.09,492.36 C268.31,492.99 268.47,493.64 268.58,494.36 L268.77,494.36 C269.67,494.36 270.5,494.18 271.24,493.81 C272,493.44 272.63,492.99 273.18,492.42 L273.65,493.31 C273.23,493.98 272.54,494.55 271.62,495 C270.69,495.45 269.74,495.76 268.75,495.93 C268.75,496.15 268.75,496.36 268.75,496.57 C268.77,496.8 268.77,497.02 268.77,497.24 C268.77,499.88 268.29,501.95 267.33,503.45 C266.37,504.95 265.01,505.71 263.28,505.71 C262.58,505.71 261.86,505.57 261.14,505.32 C260.42,505.06 259.78,504.64 259.21,504.03 C258.63,503.44 258.15,502.65 257.81,501.72 C257.45,500.77 257.28,499.61 257.28,498.22 C257.28,497.27 257.38,496.28 257.58,495.21 C257.78,494.18 258.13,493.21 258.61,492.33 C259.1,491.45 259.73,490.73 260.53,490.14 C261.34,489.57 262.34,489.28 263.54,489.28 Z M263.88,503.26 C265,503.26 265.84,502.7 266.37,501.58 C266.9,500.44 267.17,498.85 267.17,496.81 C267.17,496.67 267.17,496.54 267.17,496.41 C267.17,496.29 267.17,496.16 267.14,496.02 C266.51,495.99 266.07,495.84 265.8,495.62 C265.54,495.37 265.4,494.98 265.4,494.42 C265.4,493.92 265.5,493.58 265.72,493.37 C265.94,493.17 266.27,493.06 266.68,493.04 C266.44,492.29 266.1,491.75 265.71,491.45 C265.31,491.16 264.88,491.01 264.38,491.01 C263.72,491.01 263.17,491.23 262.7,491.68 C262.25,492.11 261.88,492.68 261.6,493.37 C261.31,494.06 261.11,494.81 260.97,495.63 C260.84,496.46 260.78,497.28 260.78,498.08 C260.78,499.13 260.87,499.98 261.06,500.65 C261.25,501.32 261.51,501.85 261.8,502.24 C262.1,502.62 262.43,502.88 262.79,503.04 C263.15,503.18 263.51,503.26 263.88,503.26 Z"/>
    <path opacity="0.6" fill="#FF0095" d="M277.4,489.28 C278.24,489.28 278.96,489.4 279.55,489.67 C280.16,489.92 280.65,490.29 281.04,490.74 C281.42,491.2 281.72,491.74 281.94,492.36 C282.17,492.99 282.34,493.64 282.44,494.36 L282.64,494.36 C283.54,494.36 284.36,494.18 285.12,493.81 C285.86,493.44 286.5,492.99 287.04,492.42 L287.52,493.31 C287.1,493.98 286.41,494.55 285.48,495 C284.55,495.45 283.59,495.76 282.61,495.93 C282.61,496.15 282.62,496.36 282.63,496.57 C282.64,496.8 282.64,497.02 282.64,497.24 C282.64,499.88 282.16,501.95 281.19,503.45 C280.23,504.95 278.87,505.71 277.15,505.71 C276.43,505.71 275.73,505.57 275.01,505.32 C274.29,505.06 273.64,504.64 273.07,504.03 C272.48,503.44 272.02,502.65 271.67,501.72 C271.32,500.77 271.14,499.61 271.14,498.22 C271.14,497.27 271.24,496.28 271.44,495.21 C271.64,494.18 271.99,493.21 272.47,492.33 C272.96,491.45 273.6,490.73 274.4,490.14 C275.2,489.57 276.2,489.28 277.4,489.28 Z M277.75,503.26 C278.87,503.26 279.7,502.7 280.24,501.58 C280.77,500.44 281.04,498.85 281.04,496.81 C281.04,496.67 281.04,496.54 281.04,496.41 C281.04,496.29 281.02,496.16 281,496.02 C280.37,495.99 279.94,495.84 279.67,495.62 C279.4,495.37 279.26,494.98 279.26,494.42 C279.26,493.92 279.36,493.58 279.59,493.37 C279.8,493.17 280.13,493.06 280.55,493.04 C280.3,492.29 279.97,491.75 279.57,491.45 C279.17,491.16 278.75,491.01 278.25,491.01 C277.59,491.01 277.03,491.23 276.58,491.68 C276.11,492.11 275.74,492.68 275.46,493.37 C275.17,494.06 274.96,494.81 274.83,495.63 C274.7,496.46 274.64,497.28 274.64,498.08 C274.64,499.13 274.74,499.98 274.93,500.65 C275.12,501.32 275.37,501.85 275.66,502.24 C275.96,502.62 276.29,502.88 276.66,503.04 C277.01,503.18 277.38,503.26 277.75,503.26 Z"/>
    <path opacity="0.6" fill="#FF0095" d="M288.6,483L288.6,494.68L294.13,489.43L297.24,489.43L291.88,493.78L292.2,493.78C293.16,493.78,293.93,493.93,294.49,494.26C295.06,494.59,295.5,495,295.81,495.51C296.13,496.01,296.32,496.55,296.42,497.13C296.52,497.73,296.57,498.28,296.57,498.79C296.57,499.01,296.56,499.24,296.54,499.52C296.53,499.78,296.52,500.05,296.52,500.32C296.51,500.59,296.5,500.84,296.49,501.06C296.48,501.28,296.47,501.45,296.47,501.59C296.47,501.74,296.48,501.91,296.51,502.1C296.52,502.29,296.58,502.47,296.66,502.65C296.75,502.82,296.88,502.97,297.05,503.08C297.22,503.2,297.44,503.26,297.72,503.26C298.28,503.26,298.75,502.98,299.15,502.43C299.55,501.87,299.88,500.98,300.13,499.76L301.31,499.76C301.07,501.15,300.75,502.24,300.39,503.02C300.02,503.8,299.63,504.39,299.21,504.81C298.8,505.21,298.38,505.46,297.96,505.56C297.54,505.66,297.17,505.71,296.85,505.71C296.22,505.71,295.66,505.61,295.2,505.41C294.74,505.22,294.37,504.95,294.08,504.63C293.78,504.29,293.57,503.9,293.44,503.45C293.29,503,293.22,502.54,293.22,502.05C293.22,501.95,293.22,501.77,293.22,501.48C293.22,501.18,293.23,500.88,293.24,500.56C293.24,500.24,293.26,499.94,293.26,499.65C293.26,499.35,293.26,499.15,293.26,499.04C293.26,497.93,293.05,497.19,292.65,496.81C292.25,496.41,291.76,496.22,291.24,496.22C290.68,496.22,290.17,496.4,289.74,496.76C289.29,497.13,288.92,497.77,288.6,498.7L288.6,505.52L285.39,505.52L285.39,483.46z"/>
    <path opacity="0.6" fill="#FF0095" d="M303.76,489.43 L303.76,500.36 C303.76,500.58 303.76,500.85 303.78,501.17 C303.8,501.5 303.86,501.81 303.96,502.13 C304.06,502.44 304.2,502.7 304.39,502.92 C304.58,503.15 304.86,503.26 305.2,503.26 C306.24,503.26 307.03,502.09 307.51,499.76 L308.7,499.76 C308.46,501.11 308.16,502.17 307.8,502.95 C307.44,503.74 307.05,504.34 306.64,504.74 C306.24,505.16 305.81,505.41 305.39,505.53 C304.96,505.65 304.57,505.71 304.23,505.71 C303.48,505.71 302.87,505.56 302.4,505.27 C301.93,504.98 301.56,504.62 301.28,504.16 C301,503.71 300.81,503.21 300.7,502.65 C300.6,502.09 300.54,501.55 300.54,501.04 L300.54,489.43 Z M299.97,484.81 C299.97,484.23 300.17,483.72 300.57,483.3 C300.99,482.86 301.48,482.66 302.08,482.66 C302.66,482.66 303.16,482.86 303.59,483.3 C304.02,483.72 304.23,484.23 304.23,484.81 C304.23,485.41 304.02,485.91 303.59,486.32 C303.16,486.73 302.66,486.93 302.08,486.93 C301.48,486.93 300.99,486.73 300.57,486.32 C300.17,485.91 299.97,485.41 299.97,484.81 Z"/>
    <path opacity="0.6" fill="#FF0095" d="M317.74,493.45 C317.74,494.96 317.12,496.21 315.89,497.22 C314.67,498.23 312.96,498.84 310.77,499.09 C310.86,499.94 311.01,500.65 311.23,501.17 C311.47,501.71 311.74,502.14 312.06,502.45 C312.38,502.75 312.75,502.97 313.17,503.08 C313.59,503.2 314.02,503.26 314.48,503.26 C315.16,503.26 315.8,503.15 316.41,502.91 C317.02,502.67 317.53,502.26 317.94,501.69 C317.96,501.85 317.97,501.98 317.98,502.13 C318,502.26 318,502.38 318,502.49 C318,502.98 317.88,503.43 317.63,503.81 C317.38,504.19 317.06,504.54 316.64,504.82 C316.22,505.11 315.73,505.34 315.18,505.47 C314.64,505.63 314.07,505.71 313.48,505.71 C312.75,505.71 312.01,505.57 311.29,505.3 C310.56,505.04 309.91,504.61 309.31,504.02 C308.72,503.43 308.25,502.65 307.88,501.72 C307.52,500.77 307.34,499.64 307.34,498.28 C307.34,497.38 307.44,496.4 307.64,495.35 C307.84,494.3 308.19,493.33 308.66,492.42 C309.15,491.52 309.79,490.78 310.56,490.18 C311.35,489.58 312.31,489.28 313.48,489.28 C314.01,489.28 314.52,489.33 315.03,489.46 C315.53,489.57 315.98,489.79 316.4,490.09 C316.8,490.4 317.12,490.83 317.37,491.36 C317.62,491.9 317.74,492.6 317.74,493.45 Z M310.74,497.83 C312.27,497.59 313.47,497.05 314.35,496.22 C315.25,495.38 315.69,494.36 315.69,493.14 C315.69,492.32 315.55,491.74 315.27,491.39 C314.99,491.03 314.59,490.85 314.08,490.85 C313.52,490.85 313.04,491.07 312.61,491.5 C312.2,491.93 311.85,492.48 311.58,493.15 C311.3,493.82 311.1,494.57 310.95,495.4 C310.81,496.22 310.74,497.03 310.74,497.83 Z"/>
  </g>
</svg>
